# xmcd
#
# Track frame offsets:
#	150
#	20112
#	34245
#	58162
#	71967
#	90695
#	111697
#	126317
#	149345
#	164884
#	188540
#	201292
#
# Disc length: 2913 seconds
#
# Revision: 0
# Processed by: cddbd v1.5.1PL2 Copyright (c) Steve Scherf et al.
# Submitted via: SynApp - FreeCDDB Version: 2.0
#
DISCID=c60b5f0c
DTITLE=Beikircher - singt H. C. Artmann
DYEAR=2000
DGENRE=A capella
TTITLE0=no und waun scho
TTITLE1=drei gedichta fia d moni:2
TTITLE2=brodaschbiaglgalarii
TTITLE3=waun de fegl fuan reng schrein
TTITLE4=schembrun
TTITLE5=en da nocht
TTITLE6=fia n schdeffan bral mein freind (Borsalino)
TTITLE7=i won zimlech weit draust
TTITLE8=winta
TTITLE9=drei gedichta fia d moni:3
TTITLE10=windradal
TTITLE11=aum eaxtn is s ma r one dia
EXTD=
EXTT0=
EXTT1=
EXTT2=
EXTT3=
EXTT4=
EXTT5=
EXTT6=
EXTT7=
EXTT8=
EXTT9=
EXTT10=
EXTT11=
PLAYORDER=
